Coordinates
version=1
nRows=60
nColumns=12
inDegrees=yes

Units are S.I. units (second, meters, Newtons, ...)
Angles are in degrees

endheader
time	SC_y	SC_z	SC_x	AC_y	AC_z	AC_x	GH_y	GH_z	GH_yy	EL_x	PS_y
       0.0              -29.39          12.61          52.13          39.37          9.794          2.065         -47.15         0.6468          151.3          15.87          94.68
   0.04627              -29.39          12.61          52.13          39.37           9.79          2.063         -47.15         0.6475          151.3          15.89          94.67
   0.09254              -29.39          12.62          52.13          39.37          9.786          2.062         -47.15         0.6482          151.2           15.9          94.66
    0.1388               -29.4          12.62          52.13          39.37          9.782           2.06         -47.16         0.6489          151.2          15.92          94.64
    0.1851               -29.4          12.62          52.13          39.37          9.777          2.058         -47.16         0.6497          151.2          15.93          94.63
    0.2313              -29.41          12.63          52.13          39.37          9.772          2.056         -47.16         0.6505          151.2          15.95          94.61
    0.2776              -29.42          12.63          52.13          39.37          9.766          2.054         -47.16         0.6514          151.2          15.97          94.59
    0.3239              -29.42          12.64          52.13          39.37          9.761          2.051         -47.16         0.6524          151.2          15.99          94.57
    0.3702              -29.43          12.64          52.13          39.38          9.755          2.049         -47.17         0.6534          151.2          16.01          94.55
    0.4164              -29.43          12.65          52.14          39.38          9.748          2.046         -47.17         0.6545          151.2          16.04          94.53
    0.4627              -29.44          12.65          52.14          39.38          9.741          2.043         -47.17         0.6556          151.2          16.06          94.51
     0.509              -29.45          12.66          52.14          39.38          9.733           2.04         -47.18         0.6569          151.2          16.09          94.48
    0.5552              -29.46          12.67          52.14          39.38          9.725          2.037         -47.18         0.6583          151.2          16.12          94.46
    0.6015              -29.47          12.67          52.14          39.38          9.716          2.033         -47.18         0.6597          151.2          16.15          94.43
    0.6478              -29.48          12.68          52.14          39.39          9.707          2.029         -47.19         0.6613          151.1          16.18           94.4
     0.694              -29.49          12.69          52.15          39.39          9.696          2.025         -47.19          0.663          151.1          16.22          94.36
    0.7403               -29.5           12.7          52.15          39.39          9.685           2.02         -47.19         0.6649          151.1          16.26          94.32
    0.7866              -29.51          12.71          52.15           39.4          9.673          2.015          -47.2         0.6669          151.1           16.3          94.28
    0.8328              -29.53          12.72          52.15           39.4          9.659           2.01          -47.2         0.6692          151.1          16.35          94.24
    0.8791              -29.54          12.73          52.16           39.4          9.644          2.004         -47.21         0.6716          151.1           16.4          94.19
    0.9254              -29.56          12.74          52.16          39.41          9.628          1.997         -47.22         0.6743          151.0          16.46          94.14
    0.9717              -29.58          12.76          52.16          39.41           9.61           1.99         -47.22         0.6772          151.0          16.52          94.08
     1.018               -29.6          12.77          52.16          39.41          9.591          1.982         -47.23         0.6805          151.0          16.59          94.01
     1.064              -29.62          12.79          52.17          39.42          9.569          1.973         -47.24         0.6841          151.0          16.66          93.94
      1.11              -29.65          12.81          52.17          39.43          9.545          1.964         -47.25         0.6881          150.9          16.75          93.86
     1.157              -29.68          12.83          52.18          39.43          9.518          1.953         -47.26         0.6926          150.9          16.84          93.77
     1.203              -29.71          12.85          52.18          39.44          9.487           1.94         -47.27         0.6976          150.9          16.95          93.68
     1.249              -29.74          12.88          52.19          39.45          9.453          1.926         -47.28         0.7032          150.8          17.07          93.56
     1.296              -29.78          12.91           52.2          39.46          9.415          1.911          -47.3         0.7096          150.8           17.2          93.44
     1.342              -29.83          12.94          52.21          39.47          9.371          1.893         -47.32         0.7168          150.7          17.35          93.29
     1.388              -29.88          12.98          52.22          39.48          9.321          1.873         -47.34          0.725          150.6          17.53          93.13
     1.434              -29.94          13.03          52.23          39.49          9.264           1.85         -47.36         0.7345          150.6          17.73          92.94
     1.481              -30.01          13.08          52.24          39.51          9.198          1.823         -47.38         0.7454          150.5          17.96          92.72
     1.527              -30.09          13.14          52.25          39.53          9.121          1.792         -47.41         0.7581          150.4          18.23          92.47
     1.573              -30.19          13.21          52.27          39.55          9.031          1.755         -47.45          0.773          150.3          18.54          92.17
     1.619               -30.3           13.3          52.29          39.57          8.925          1.712         -47.49         0.7905          150.1          18.91          91.83
     1.666              -30.43          13.39          52.31          39.61          8.799          1.661         -47.54         0.8113          150.0          19.36          91.41
     1.712              -30.59          13.51          52.34          39.64          8.648            1.6          -47.6         0.8363          149.8          19.88          90.92
     1.758              -30.78          13.66          52.37          39.69          8.465          1.526         -47.67         0.8665          149.5          20.52          90.32
     1.804              -31.02          13.83          52.42          39.74          8.242          1.435         -47.76         0.9033          149.2           21.3          89.58
     1.851              -31.31          14.05          52.47          39.81          7.967          1.323         -47.86         0.9489          148.9          22.27          88.68
     1.897              -31.67          14.32          52.53          39.89          7.624          1.184          -48.0          1.006          148.4          23.47          87.55
     1.943              -32.12          14.66          52.61          39.99          7.191          1.009         -48.16          1.077          147.9          24.98          86.13
      1.99               -32.7          15.09          52.71          40.12          6.641         0.7854         -48.38          1.168          147.2           26.9          84.32
     2.036              -33.44          15.65          52.85          40.29          5.937         0.4998         -48.65          1.284          146.2          29.36          82.01
     2.082              -34.39          16.36          53.01          40.51          5.034         0.1333          -49.0          1.434          145.1          32.52          79.04
     2.128               -35.6          17.27          53.23          40.79           3.88        -0.3348         -49.45          1.624          143.6          36.56          75.24
     2.175              -37.13          18.41           53.5          41.14           2.43        -0.9234         -50.02          1.864          141.7          41.63          70.48
     2.221              -38.99           19.8          53.83          41.56         0.6619         -1.641         -50.71          2.156          139.4          47.81          64.67
     2.267              -41.14          21.41          54.21          42.05         -1.387         -2.472          -51.5          2.495          136.7          54.98          57.93
     2.313              -43.47          23.16          54.62          42.59         -3.606         -3.373         -52.37          2.862          133.9          62.74          50.64
      2.36              -45.81           24.9          55.04          43.12         -5.825         -4.273         -53.23          3.228          131.0           70.5          43.34
     2.406              -47.96          26.52          55.42          43.61         -7.874         -5.104         -54.03          3.567          128.3          77.67          36.61
     2.452              -49.82          27.91          55.75          44.04         -9.642         -5.822         -54.72          3.859          126.0          83.85           30.8
     2.499              -51.34          29.05          56.02          44.39         -11.09          -6.41         -55.28          4.099          124.1          88.92          26.03
     2.545              -52.56          29.96          56.23          44.66         -12.25         -6.878         -55.73           4.29          122.6          92.96          22.24
     2.591              -53.51          30.67           56.4          44.88         -13.15         -7.245         -56.08          4.439          121.5          96.12          19.27
     2.637              -54.25          31.22          56.53          45.05         -13.85          -7.53         -56.35          4.555          120.6          98.58          16.95
     2.684              -54.82          31.66          56.63          45.18          -14.4         -7.754         -56.57          4.646          119.8          100.5          15.15
      2.73              -55.28           32.0          56.71          45.28         -14.84         -7.929         -56.74          4.718          119.3          102.0          13.72
